<?xml version="1.0" encoding="UTF-8" standalone="no"?>
<!DOCTYPE svg PUBLIC "-//W3C//DTD SVG 20010904//EN"
              "http://www.w3.org/TR/2001/REC-SVG-20010904/DTD/svg10.dtd">

<svg xmlns="http://www.w3.org/2000/svg"
     width="1.12667in" height="1.13333in"
     viewBox="0 0 338 340">
  <path id="Selection"
        fill="none" stroke="black" stroke-width="1"
        d="M 233.00,3.00
           C 233.00,3.00 268.00,22.72 268.00,22.72
             279.13,29.05 300.00,40.47 309.00,48.29
             324.47,61.72 333.97,81.44 334.00,102.00
             334.00,102.00 334.00,213.00 334.00,213.00
             333.97,234.46 323.54,254.25 307.00,267.69
             298.69,274.44 279.09,285.20 269.00,291.00
             269.00,291.00 233.00,311.00 233.00,311.00
             233.00,311.00 233.00,3.00 233.00,3.00 Z
           M 117.00,64.00
           C 117.00,64.00 163.00,89.99 163.00,89.99
             180.67,100.37 195.61,106.94 207.30,125.00
             221.92,147.58 220.00,171.37 220.00,197.00
             220.00,197.00 220.00,311.00 220.00,311.00
             220.00,313.35 220.22,316.63 218.98,318.67
             216.99,321.95 203.97,328.36 200.00,330.22
             179.39,339.88 155.33,339.24 135.00,329.24
             130.74,327.15 119.37,322.02 117.60,317.82
             116.88,316.10 117.00,312.91 117.00,311.00
             117.00,311.00 117.00,64.00 117.00,64.00 Z
           M 3.00,118.00
           C 9.85,120.17 27.65,131.36 35.00,135.58
             60.15,150.00 87.80,161.91 98.94,191.00
             105.56,208.30 104.00,222.00 104.00,240.00
             104.00,240.00 104.00,311.00 104.00,311.00
             97.71,309.01 79.89,297.80 73.00,293.85
             47.49,279.21 19.35,267.49 8.06,238.00
             1.22,220.12 3.00,207.62 3.00,189.00
             3.00,189.00 3.00,118.00 3.00,118.00 Z" />
</svg>
